# xmcd CD database file
# Copyright (C) 1997 Ti Kan
# 
# Track frame offsets:
#     150
#     8212
#     22620
#     31635
#     41205
#     55820
#     65995
#     75157
#     83900
#     92122
#     100035
#     111220
#     121660
#     133392
#     145277
#     158942
# 
# Disc length: 2346 seconds
# 
# Revision: 1
# Processed by: cddbd v1.4b41PL1 Copyright (c) Steve Scherf et al.
# Submitted via: DiscPlay 4.0.4
# 
DISCID=c7092810
DTITLE=Skeeter and the Skidmarks - Alternate Roots
DYEAR=1900
DGENRE=
TTITLE0=Ground Hog Shuffle
TTITLE1=Been All Around This World
TTITLE2=Squawkin' Weasel Bait (Cluck Old Hen)
TTITLE3=Chevy Chase
TTITLE4=I Love You, Nellie
TTITLE5=Whiskey Before Breakfast
TTITLE6=Fly Away (To The One I Love)
TTITLE7=Off To California
TTITLE8=Sarah's Tune
TTITLE9=I Know The Lord (Has Laid His Hands On Me)
TTITLE10=Ezekiel's Wheel
TTITLE11=Dixie Darlin'
TTITLE12=Jacob's Reel
TTITLE13=Fall On My Knees
TTITLE14=Old Time Medley (Mississippi Sawyer, Soldier's Joy, Liberty)
TTITLE15=Bridges of Andy
EXTD=
EXTT0=
EXTT1=
EXTT2=
EXTT3=
EXTT4=
EXTT5=
EXTT6=
EXTT7=
EXTT8=
EXTT9=
EXTT10=
EXTT11=
EXTT12=
EXTT13=
EXTT14=
EXTT15=
PLAYORDER=
